<?xml version="1.0" standalone="no"?>
<!DOCTYPE svg PUBLIC "-//W3C//DTD SVG 20010904//EN"
 "http://www.w3.org/TR/2001/REC-SVG-20010904/DTD/svg10.dtd">
<svg version="1.0" xmlns="http://www.w3.org/2000/svg"
 width="500.000000pt" height="500.000000pt" viewBox="0 0 500.000000 500.000000"
 preserveAspectRatio="xMidYMid meet">
<metadata>
Created by potrace 1.11, written by Peter Selinger 2001-2013
</metadata>
<g transform="translate(0.000000,500.000000) scale(0.100000,-0.100000)"
fill="#000000" stroke="none">
<path d="M2475 4993 c-11 -2 -67 -13 -125 -24 -295 -58 -601 -202 -845 -398
-82 -65 -244 -224 -302 -296 -143 -177 -259 -400 -312 -601 -12 -46 -37 -185
-45 -259 -9 -73 -17 -137 -21 -162 -2 -12 -7 -56 -10 -98 -6 -58 -20 -109 -61
-213 -30 -75 -59 -146 -64 -157 -5 -11 -65 -164 -135 -340 -69 -176 -131 -334
-139 -351 -21 -46 -15 -123 12 -162 41 -57 70 -65 233 -65 l146 -1 -1 -260
c-1 -144 2 -298 6 -343 27 -318 273 -592 590 -658 49 -11 132 -16 260 -16
l188 0 0 -290 0 -289 33 -1 c41 -1 1957 -1 1978 0 14 1 15 81 14 793 0 436 1
800 3 808 2 8 20 28 40 43 118 90 265 255 372 417 157 237 264 533 300 832 9
73 6 410 -4 458 -2 14 -7 41 -10 60 -42 282 -186 609 -378 860 -68 88 -256
273 -349 342 -130 97 -399 248 -442 248 -7 0 -17 4 -22 9 -17 17 -247 81 -360
100 -85 15 -159 19 -320 19 -115 -1 -219 -3 -230 -5z m445 -237 c550 -82 1006
-408 1249 -893 78 -157 137 -350 158 -523 10 -82 10 -315 1 -400 -8 -67 -10
-75 -27 -150 -5 -25 -12 -56 -15 -70 -10 -55 -60 -190 -106 -287 -161 -340
-433 -612 -775 -774 -202 -95 -407 -146 -650 -158 -6 -1 -11 -18 -12 -38 0
-21 -3 -130 -7 -243 -4 -113 -9 -256 -11 -318 -2 -63 -5 -116 -8 -118 -3 -4
-91 87 -280 290 -65 69 -279 297 -337 359 -30 32 -81 86 -112 120 -32 33 -58
65 -58 70 0 5 10 18 21 28 18 16 189 176 330 309 37 35 229 215 298 278 20 19
63 59 96 90 33 31 71 66 84 77 l24 20 -6 -20 c-3 -11 -9 -126 -13 -255 -3
-129 -7 -266 -8 -303 l-2 -68 78 6 c92 6 255 43 348 78 411 154 722 496 835
917 14 52 27 113 30 135 3 22 7 56 10 75 7 52 6 238 0 295 -72 609 -535 1092
-1139 1190 -151 24 -342 17 -527 -20 -67 -13 -194 -61 -294 -110 -253 -125
-475 -346 -603 -600 -58 -115 -115 -300 -127 -412 -3 -26 -8 -57 -10 -68 -2
-11 -4 -35 -4 -53 l-1 -33 -137 4 -138 4 1 39 c4 154 44 338 111 509 212 545
704 932 1293 1018 96 14 352 16 440 3z m-676 -679 c11 -8 40 -50 64 -93 23
-44 55 -101 71 -129 40 -71 321 -576 366 -660 21 -38 41 -74 45 -80 30 -40 90
-168 90 -190 0 -34 -47 -81 -253 -252 -221 -185 -428 -358 -467 -392 -45 -40
-63 -45 -104 -31 -48 16 -72 58 -67 117 2 24 74 87 386 343 110 90 219 182
243 204 l43 41 -286 513 c-157 282 -285 522 -285 532 0 76 88 120 154 77z"/>
</g>
</svg>
